# xmcd CD database file
#
# Track frame offsets:
#	150
#	8743
#	19734
#	29619
#	39134
#	51546
#	61481
#	72936
#	84754
#	94200
#	107341
#	119923
#	132313
#	141674
#	151602
#	161198
#	173735
#	186467
#	194626
#	205921
#	217156
#	230804
#	240380
#	250463
#	260758
#	274456
#	283801
#
# Disc length: 3941 seconds
#
# Revision: 0
# Processed by: cddbd v1.5.2PL0 Copyright (c) Steve Scherf et al.
# Submitted via: CDex 1.51
#
DISCID=a70f631b
DTITLE=Cecil Surratt and Smitty Smith - Last Mile Of The Way
DYEAR=1900
DGENRE=Country
TTITLE0=Wreck Of The Old 97
TTITLE1=Chicken Reel
TTITLE2=Last Mile Of The Way
TTITLE3=Old Joe Clark
TTITLE4=Darlin' Oh Darlin'
TTITLE5=Read The Bible Every Day
TTITLE6=Counting The Days
TTITLE7=All Because Of Calvary
TTITLE8=Sippin' Cider
TTITLE9=The Waltz You Saved For Me (Instr.)
TTITLE10=I'm Never To Marry
TTITLE11=Sittin' In (Instr.)
TTITLE12=Lost Indian (Instr.)
TTITLE13=Never Grow Old
TTITLE14=Boil 'Em Cabbage Down (Instr.)
TTITLE15=The Devil And The Farmer
TTITLE16=Poor Ellen Smith
TTITLE17=Mighty Mississippi
TTITLE18=I Might Have Saved A Broken Heart
TTITLE19=I Stopped Living The Day You Stopped Loving Me
TTITLE20=Smitty's Blues (Instr.)
TTITLE21=S And S Ride (Instr.)
TTITLE22=Bluegrass Mountaineers Always Free
TTITLE23=Second Hand Hearts
TTITLE24=This Land Is Your Land
TTITLE25=Cabin
TTITLE26=Do You Mean The Words You Say
EXTD=
EXTT0=
EXTT1=
EXTT2=
EXTT3=
EXTT4=
EXTT5=
EXTT6=
EXTT7=
EXTT8=
EXTT9=
EXTT10=
EXTT11=
EXTT12=
EXTT13=
EXTT14=
EXTT15=
EXTT16=
EXTT17=
EXTT18=
EXTT19=
EXTT20=
EXTT21=
EXTT22=
EXTT23=
EXTT24=
EXTT25=
EXTT26=
PLAYORDER=
